<svg width="251" height="62" viewBox="0 0 251 62" fill="none" xmlns="http://www.w3.org/2000/svg">
<rect x="0.5" y="0.5" width="250" height="61" rx="12.5" stroke="#4A83E7" stroke-opacity="0.4"/>
<path d="M82.7593 22.06V43H78.5593V22.06H82.7593ZM96.1189 26.14C98.0989 26.14 99.6989 26.77 100.919 28.03C102.139 29.27 102.749 31.01 102.749 33.25V43H98.5489V33.82C98.5489 32.5 98.2189 31.49 97.5589 30.79C96.8989 30.07 95.9989 29.71 94.8589 29.71C93.6989 29.71 92.7789 30.07 92.0989 30.79C91.4389 31.49 91.1089 32.5 91.1089 33.82V43H86.9089V26.38H91.1089V28.45C91.6689 27.73 92.3789 27.17 93.2389 26.77C94.1189 26.35 95.0789 26.14 96.1189 26.14ZM105.663 34.63C105.663 32.95 105.993 31.46 106.653 30.16C107.333 28.86 108.253 27.86 109.413 27.16C110.573 26.46 111.863 26.11 113.283 26.11C114.363 26.11 115.393 26.35 116.373 26.83C117.353 27.29 118.133 27.91 118.713 28.69V20.8H122.973V43H118.713V40.54C118.193 41.36 117.463 42.02 116.523 42.52C115.583 43.02 114.493 43.27 113.253 43.27C111.853 43.27 110.573 42.91 109.413 42.19C108.253 41.47 107.333 40.46 106.653 39.16C105.993 37.84 105.663 36.33 105.663 34.63ZM118.743 34.69C118.743 33.67 118.543 32.8 118.143 32.08C117.743 31.34 117.203 30.78 116.523 30.4C115.843 30 115.113 29.8 114.333 29.8C113.553 29.8 112.833 29.99 112.173 30.37C111.513 30.75 110.973 31.31 110.553 32.05C110.153 32.77 109.953 33.63 109.953 34.63C109.953 35.63 110.153 36.51 110.553 37.27C110.973 38.01 111.513 38.58 112.173 38.98C112.853 39.38 113.573 39.58 114.333 39.58C115.113 39.58 115.843 39.39 116.523 39.01C117.203 38.61 117.743 38.05 118.143 37.33C118.543 36.59 118.743 35.71 118.743 34.69ZM129.205 24.4C128.465 24.4 127.845 24.17 127.345 23.71C126.865 23.23 126.625 22.64 126.625 21.94C126.625 21.24 126.865 20.66 127.345 20.2C127.845 19.72 128.465 19.48 129.205 19.48C129.945 19.48 130.555 19.72 131.035 20.2C131.535 20.66 131.785 21.24 131.785 21.94C131.785 22.64 131.535 23.23 131.035 23.71C130.555 24.17 129.945 24.4 129.205 24.4ZM131.275 26.38V43H127.075V26.38H131.275ZM142.354 39.13L146.554 26.38H151.024L144.874 43H139.774L133.654 26.38H138.154L142.354 39.13ZM155.513 24.4C154.773 24.4 154.153 24.17 153.653 23.71C153.173 23.23 152.933 22.64 152.933 21.94C152.933 21.24 153.173 20.66 153.653 20.2C154.153 19.72 154.773 19.48 155.513 19.48C156.253 19.48 156.863 19.72 157.343 20.2C157.843 20.66 158.093 21.24 158.093 21.94C158.093 22.64 157.843 23.23 157.343 23.71C156.863 24.17 156.253 24.4 155.513 24.4ZM157.583 26.38V43H153.383V26.38H157.583ZM160.653 34.63C160.653 32.95 160.983 31.46 161.643 30.16C162.323 28.86 163.243 27.86 164.403 27.16C165.563 26.46 166.853 26.11 168.273 26.11C169.353 26.11 170.383 26.35 171.363 26.83C172.343 27.29 173.123 27.91 173.703 28.69V20.8H177.963V43H173.703V40.54C173.183 41.36 172.453 42.02 171.513 42.52C170.573 43.02 169.483 43.27 168.243 43.27C166.843 43.27 165.563 42.91 164.403 42.19C163.243 41.47 162.323 40.46 161.643 39.16C160.983 37.84 160.653 36.33 160.653 34.63ZM173.733 34.69C173.733 33.67 173.533 32.8 173.133 32.08C172.733 31.34 172.193 30.78 171.513 30.4C170.833 30 170.103 29.8 169.323 29.8C168.543 29.8 167.823 29.99 167.163 30.37C166.503 30.75 165.963 31.31 165.543 32.05C165.143 32.77 164.943 33.63 164.943 34.63C164.943 35.63 165.143 36.51 165.543 37.27C165.963 38.01 166.503 38.58 167.163 38.98C167.843 39.38 168.563 39.58 169.323 39.58C170.103 39.58 170.833 39.39 171.513 39.01C172.193 38.61 172.733 38.05 173.133 37.33C173.533 36.59 173.733 35.71 173.733 34.69ZM197.755 26.38V43H193.525V40.9C192.985 41.62 192.275 42.19 191.395 42.61C190.535 43.01 189.595 43.21 188.575 43.21C187.275 43.21 186.125 42.94 185.125 42.4C184.125 41.84 183.335 41.03 182.755 39.97C182.195 38.89 181.915 37.61 181.915 36.13V26.38H186.115V35.53C186.115 36.85 186.445 37.87 187.105 38.59C187.765 39.29 188.665 39.64 189.805 39.64C190.965 39.64 191.875 39.29 192.535 38.59C193.195 37.87 193.525 36.85 193.525 35.53V26.38H197.755ZM200.819 34.63C200.819 32.95 201.149 31.46 201.809 30.16C202.489 28.86 203.399 27.86 204.539 27.16C205.699 26.46 206.989 26.11 208.409 26.11C209.649 26.11 210.729 26.36 211.649 26.86C212.589 27.36 213.339 27.99 213.899 28.75V26.38H218.129V43H213.899V40.57C213.359 41.35 212.609 42 211.649 42.52C210.709 43.02 209.619 43.27 208.379 43.27C206.979 43.27 205.699 42.91 204.539 42.19C203.399 41.47 202.489 40.46 201.809 39.16C201.149 37.84 200.819 36.33 200.819 34.63ZM213.899 34.69C213.899 33.67 213.699 32.8 213.299 32.08C212.899 31.34 212.359 30.78 211.679 30.4C210.999 30 210.269 29.8 209.489 29.8C208.709 29.8 207.989 29.99 207.329 30.37C206.669 30.75 206.129 31.31 205.709 32.05C205.309 32.77 205.109 33.63 205.109 34.63C205.109 35.63 205.309 36.51 205.709 37.27C206.129 38.01 206.669 38.58 207.329 38.98C208.009 39.38 208.729 39.58 209.489 39.58C210.269 39.58 210.999 39.39 211.679 39.01C212.359 38.61 212.899 38.05 213.299 37.33C213.699 36.59 213.899 35.71 213.899 34.69ZM226.431 20.8V43H222.231V20.8H226.431Z" fill="black"/>
<path d="M49.3084 23.1867C49.3084 27.1447 46.0998 30.3533 42.1418 30.3533C38.1837 30.3533 34.9751 27.1447 34.9751 23.1867C34.9751 19.2286 38.1837 16.02 42.1418 16.02C46.0998 16.02 49.3084 19.2286 49.3084 23.1867Z" stroke="#131A29" stroke-width="2" stroke-linecap="round" stroke-linejoin="round"/>
<path d="M42.1418 33.7933C35.2152 33.7933 29.6001 39.4084 29.6001 46.335H54.6834C54.6834 39.4084 49.0683 33.7933 42.1418 33.7933Z" stroke="#131A29" stroke-width="2" stroke-linecap="round" stroke-linejoin="round"/>
</svg>




