<svg width="251" height="62" viewBox="0 0 251 62" fill="none" xmlns="http://www.w3.org/2000/svg">
<rect x="0.5" y="0.5" width="250" height="61" rx="12.5" stroke="#4A83E7" stroke-opacity="0.4"/>
<path d="M80.3091 22.06V43H76.1091V22.06H80.3091ZM93.6687 26.14C95.6487 26.14 97.2487 26.77 98.4687 28.03C99.6887 29.27 100.299 31.01 100.299 33.25V43H96.0987V33.82C96.0987 32.5 95.7687 31.49 95.1087 30.79C94.4487 30.07 93.5487 29.71 92.4087 29.71C91.2487 29.71 90.3287 30.07 89.6487 30.79C88.9887 31.49 88.6587 32.5 88.6587 33.82V43H84.4587V26.38H88.6587V28.45C89.2187 27.73 89.9287 27.17 90.7887 26.77C91.6687 26.35 92.6287 26.14 93.6687 26.14ZM110.653 43.27C109.293 43.27 108.073 43.03 106.993 42.55C105.913 42.05 105.053 41.38 104.413 40.54C103.793 39.7 103.453 38.77 103.393 37.75H107.623C107.703 38.39 108.013 38.92 108.553 39.34C109.113 39.76 109.803 39.97 110.623 39.97C111.423 39.97 112.043 39.81 112.483 39.49C112.943 39.17 113.173 38.76 113.173 38.26C113.173 37.72 112.893 37.32 112.333 37.06C111.793 36.78 110.923 36.48 109.723 36.16C108.483 35.86 107.463 35.55 106.663 35.23C105.883 34.91 105.203 34.42 104.623 33.76C104.063 33.1 103.783 32.21 103.783 31.09C103.783 30.17 104.043 29.33 104.563 28.57C105.103 27.81 105.863 27.21 106.843 26.77C107.843 26.33 109.013 26.11 110.353 26.11C112.333 26.11 113.913 26.61 115.093 27.61C116.273 28.59 116.923 29.92 117.043 31.6H113.023C112.963 30.94 112.683 30.42 112.183 30.04C111.703 29.64 111.053 29.44 110.233 29.44C109.473 29.44 108.883 29.58 108.463 29.86C108.063 30.14 107.863 30.53 107.863 31.03C107.863 31.59 108.143 32.02 108.703 32.32C109.263 32.6 110.133 32.89 111.313 33.19C112.513 33.49 113.503 33.8 114.283 34.12C115.063 34.44 115.733 34.94 116.293 35.62C116.873 36.28 117.173 37.16 117.193 38.26C117.193 39.22 116.923 40.08 116.383 40.84C115.863 41.6 115.103 42.2 114.103 42.64C113.123 43.06 111.973 43.27 110.653 43.27ZM125.53 29.83V37.87C125.53 38.43 125.66 38.84 125.92 39.1C126.2 39.34 126.66 39.46 127.3 39.46H129.25V43H126.61C123.07 43 121.3 41.28 121.3 37.84V29.83H119.32V26.38H121.3V22.27H125.53V26.38H129.25V29.83H125.53ZM134.401 24.4C133.661 24.4 133.041 24.17 132.541 23.71C132.061 23.23 131.821 22.64 131.821 21.94C131.821 21.24 132.061 20.66 132.541 20.2C133.041 19.72 133.661 19.48 134.401 19.48C135.141 19.48 135.751 19.72 136.231 20.2C136.731 20.66 136.981 21.24 136.981 21.94C136.981 22.64 136.731 23.23 136.231 23.71C135.751 24.17 135.141 24.4 134.401 24.4ZM136.471 26.38V43H132.271V26.38H136.471ZM145.511 29.83V37.87C145.511 38.43 145.641 38.84 145.901 39.1C146.181 39.34 146.641 39.46 147.281 39.46H149.231V43H146.591C143.051 43 141.281 41.28 141.281 37.84V29.83H139.301V26.38H141.281V22.27H145.511V26.38H149.231V29.83H145.511ZM167.942 26.38V43H163.712V40.9C163.172 41.62 162.462 42.19 161.582 42.61C160.722 43.01 159.782 43.21 158.762 43.21C157.462 43.21 156.312 42.94 155.312 42.4C154.312 41.84 153.522 41.03 152.942 39.97C152.382 38.89 152.102 37.61 152.102 36.13V26.38H156.302V35.53C156.302 36.85 156.632 37.87 157.292 38.59C157.952 39.29 158.852 39.64 159.992 39.64C161.152 39.64 162.062 39.29 162.722 38.59C163.382 37.87 163.712 36.85 163.712 35.53V26.38H167.942ZM176.976 29.83V37.87C176.976 38.43 177.106 38.84 177.366 39.1C177.646 39.34 178.106 39.46 178.746 39.46H180.696V43H178.056C174.516 43 172.746 41.28 172.746 37.84V29.83H170.766V26.38H172.746V22.27H176.976V26.38H180.696V29.83H176.976ZM185.846 24.4C185.106 24.4 184.486 24.17 183.986 23.71C183.506 23.23 183.266 22.64 183.266 21.94C183.266 21.24 183.506 20.66 183.986 20.2C184.486 19.72 185.106 19.48 185.846 19.48C186.586 19.48 187.196 19.72 187.676 20.2C188.176 20.66 188.426 21.24 188.426 21.94C188.426 22.64 188.176 23.23 187.676 23.71C187.196 24.17 186.586 24.4 185.846 24.4ZM187.916 26.38V43H183.716V26.38H187.916ZM199.446 43.27C197.846 43.27 196.406 42.92 195.126 42.22C193.846 41.5 192.836 40.49 192.096 39.19C191.376 37.89 191.016 36.39 191.016 34.69C191.016 32.99 191.386 31.49 192.126 30.19C192.886 28.89 193.916 27.89 195.216 27.19C196.516 26.47 197.966 26.11 199.566 26.11C201.166 26.11 202.616 26.47 203.916 27.19C205.216 27.89 206.236 28.89 206.976 30.19C207.736 31.49 208.116 32.99 208.116 34.69C208.116 36.39 207.726 37.89 206.946 39.19C206.186 40.49 205.146 41.5 203.826 42.22C202.526 42.92 201.066 43.27 199.446 43.27ZM199.446 39.61C200.206 39.61 200.916 39.43 201.576 39.07C202.256 38.69 202.796 38.13 203.196 37.39C203.596 36.65 203.796 35.75 203.796 34.69C203.796 33.11 203.376 31.9 202.536 31.06C201.716 30.2 200.706 29.77 199.506 29.77C198.306 29.77 197.296 30.2 196.476 31.06C195.676 31.9 195.276 33.11 195.276 34.69C195.276 36.27 195.666 37.49 196.446 38.35C197.246 39.19 198.246 39.61 199.446 39.61ZM220.407 26.14C222.387 26.14 223.987 26.77 225.207 28.03C226.427 29.27 227.037 31.01 227.037 33.25V43H222.837V33.82C222.837 32.5 222.507 31.49 221.847 30.79C221.187 30.07 220.287 29.71 219.147 29.71C217.987 29.71 217.067 30.07 216.387 30.79C215.727 31.49 215.397 32.5 215.397 33.82V43H211.197V26.38H215.397V28.45C215.957 27.73 216.667 27.17 217.527 26.77C218.407 26.35 219.367 26.14 220.407 26.14Z" fill="black"/>
<path d="M42 49V44.875C42 39.1796 37.5228 34.5625 32 34.5625C26.4772 34.5625 22 39.1796 22 44.875V49H42ZM42 49H58V46.9375C58 40.8624 53.5228 36.625 48 36.625C45.1733 36.625 42.6206 37.9151 40.8019 39.9891M38 22.1875C38 25.6048 35.3137 28.375 32 28.375C28.6863 28.375 26 25.6048 26 22.1875C26 18.7702 28.6863 16 32 16C35.3137 16 38 18.7702 38 22.1875ZM52 26.3125C52 28.5907 50.2091 30.4375 48 30.4375C45.7909 30.4375 44 28.5907 44 26.3125C44 24.0343 45.7909 22.1875 48 22.1875C50.2091 22.1875 52 24.0343 52 26.3125Z" stroke="#131A29" stroke-width="2" stroke-linecap="round" stroke-linejoin="round"/>
</svg>
