<svg width="600" height="414" viewBox="0 0 600 414" fill="none" xmlns="http://www.w3.org/2000/svg">
<path opacity="0.05" d="M339.376 56.3018C300.917 56.3532 263.899 45.4694 228.491 33.3786C193.082 21.2878 157.947 7.74856 120.203 2.01133C95.9289 -1.67652 68.3259 -1.33753 49.351 12.0528C31.0862 24.9346 25.7971 46.2553 23.2452 65.9529C21.3261 80.7711 20.4411 96.3238 27.6287 109.878C32.6194 119.288 41.1602 127.044 47.1798 136.012C68.1921 167.21 55.5559 207.062 35.1353 238.984C25.5604 253.961 14.3443 268.317 7.10523 284.153C-0.133818 299.988 -3.1025 317.944 4.28061 333.574C11.5968 349.065 28.1227 360.308 45.8576 367.987C81.8727 383.612 123.805 386.96 164.61 388.25C254.936 391.111 345.437 385.276 435.696 379.441C469.098 377.284 502.648 375.111 535.36 368.86C553.522 365.393 572.224 360.247 585.102 348.967C601.448 334.647 604.793 311.267 592.897 294.461C572.95 266.273 520.352 260.957 506.049 230.458C498.162 213.667 504.964 194.411 514.981 178.227C536.467 143.501 573.449 112.395 574.072 73.5546C574.499 46.8819 555.266 20.8615 526.542 9.2689C496.433 -2.87327 455.381 0.249586 434.286 22.8801C412.595 46.1936 373.333 56.2659 339.376 56.3018Z" fill="black"/>
<path d="M511 331.039C511 331.039 504.471 327.292 498 329.957C498 329.957 499.992 333.293 508.184 332.979L511 331.039Z" fill="#6C63FF"/>
<path d="M511.586 332C511.586 332 513.691 339.141 508.411 344C508.411 344 505.236 341.056 508.411 333.845L511.586 332Z" fill="#6C63FF"/>
<path d="M519 324.46C519 324.46 518.517 318.396 504 320.409C504 320.409 503.931 324.32 509.027 326.173C514.122 328.025 516.458 326.463 519 324.46Z" fill="#6C63FF"/>
<path d="M520.143 325C520.143 325 526.116 326.895 520.789 340C520.789 340 516.847 339.131 516.139 333.915C515.431 328.699 517.529 326.901 520.143 325Z" fill="#6C63FF"/>
<path d="M527.992 315.482C527.992 315.482 528.823 305.005 514.022 306.077C514.022 306.077 512.963 315.54 525.381 318L527.992 315.482Z" fill="#6C63FF"/>
<path d="M537 304.13C537 304.13 535.071 292.078 521 295.668C521 295.668 520.95 306.088 534.703 307L537 304.13Z" fill="#6C63FF"/>
<path d="M544 291.842C544 291.842 540.611 280.158 526 283.652C526 283.652 529.479 294.163 543.029 293.998L544 291.842Z" fill="#2E2DAD"/>
<path d="M551 280.945C551 280.945 547.77 269.124 534 272.66C534 272.66 538.595 283.891 550.088 282.943L551 280.945Z" fill="#2E2DAD"/>
<path d="M555 269.866C555 269.866 552.569 255.228 540 258.468C540 258.468 543.652 271.785 554.077 272L555 269.866Z" fill="#2E2DAD"/>
<path d="M559 255.938C559 255.938 556.012 241.607 543 245.753C543 245.753 548.099 259.299 558.076 257.898L559 255.938Z" fill="#2E2DAD"/>
<path d="M562 243.111C562 243.111 557.194 228.616 547 229.008C547 229.008 551.911 244.316 561.147 246L562 243.111Z" fill="#2E2DAD"/>
<path d="M563 231.266C563 231.266 557.973 213.723 550 215.074C550 215.074 553.479 228.485 562.718 234L563 231.266Z" fill="#2E2DAD"/>
<path d="M564 217.2C564 217.2 559.122 202.585 551 202C551 202 554.318 216.382 563.839 221L564 217.2Z" fill="#2E2DAD"/>
<path d="M565 203.648C565 203.648 559.155 189.324 554 189C554 189 556.54 203.106 564.5 206L565 203.648Z" fill="#2E2DAD"/>
<path d="M566 190.835C566 190.835 562.307 175.292 557 174C557 174 557.724 186.718 565.466 192L566 190.835Z" fill="#2E2DAD"/>
<path d="M568 173.851C568 173.851 564.203 160.964 560 159C560 159 560.829 174.193 567.031 177L568 173.851Z" fill="#2E2DAD"/>
<path d="M569.222 163.119L570 141C570 141 561.987 157.674 568.643 167L569.222 163.119Z" fill="#2E2DAD"/>
<path d="M576.031 141.082C576.031 141.082 581.641 124.904 583 124C583 124 571.999 134.498 573.074 148L576.031 141.082Z" fill="#2E2DAD"/>
<path d="M528.287 316.032C528.287 316.032 538.291 314.717 537.993 328.94C537.993 328.94 528.953 330.423 526 318.657L528.287 316.032Z" fill="#6C63FF"/>
<path d="M538.313 304C538.313 304 549.905 303.963 548.943 318.924C548.943 318.924 539.209 320.719 536 306.828L538.313 304Z" fill="#2E2DAD"/>
<path d="M544.922 292.98C544.922 292.98 555.337 287.837 562 301.114C562 301.114 552.381 305.397 544 295.127L544.922 292.98Z" fill="#2E2DAD"/>
<path d="M550.891 281.086C550.891 281.086 561.671 275.9 568 288.193C568 288.193 556.77 292.013 550 283.032L550.891 281.086Z" fill="#2E2DAD"/>
<path d="M555.473 269.461C555.473 269.461 565.777 259.349 574 269.575C574 269.575 563.474 277.899 555 271.714L555.473 269.461Z" fill="#2E2DAD"/>
<path d="M558.374 255.33C558.374 255.33 568.797 245.287 577 255.792C577 255.792 565.303 264.042 558 257.439L558.374 255.33Z" fill="#2E2DAD"/>
<path d="M560 243.062C560 243.062 568.266 230.629 578 233.404C578 233.404 569.422 246.568 560.094 245.981L560 243.062Z" fill="#2E2DAD"/>
<path d="M563.208 231.341C563.208 231.341 571.322 215.577 579 218.321C579 218.321 573.148 230.44 563 234L563.208 231.341Z" fill="#2E2DAD"/>
<path d="M563.813 216.314C563.813 216.314 572.171 203.574 580 205.132C580 205.132 573.166 218.052 563 220L563.813 216.314Z" fill="#2E2DAD"/>
<path d="M564 202.548C564 202.548 570.621 188.099 576 188C576 188 572.822 202.345 564.447 205L564 202.548Z" fill="#2E2DAD"/>
<path d="M565 190.712C565 190.712 572.422 176.031 578 176C578 176 574.203 188.554 565.246 192L565 190.712Z" fill="#2E2DAD"/>
<path d="M566 174.729C566 174.729 571.47 162.397 576 161C576 161 573.265 176.031 566.604 178L566 174.729Z" fill="#2E2DAD"/>
<path d="M569.784 162.465L582 144C582 144 578.87 162.214 568 166L569.784 162.465Z" fill="#2E2DAD"/>
<path d="M578.022 142.278C578.022 142.278 592.475 132.569 593 131C593 131 585.65 144.598 572 147L578.022 142.278Z" fill="#2E2DAD"/>
<path d="M579.395 139C579.395 139 595.809 122.984 600 123C600 123 586.462 123.627 579 138.146L579.395 139Z" fill="#2E2DAD"/>
<path d="M567 176.924L567.586 177C570.61 153.302 575.02 139.279 580 137.561L579.807 137C574.526 138.835 570.086 152.644 567 176.924Z" fill="#2E2DAD"/>
<path d="M562 234.928L562.854 235C563.035 232.769 563.173 230.486 563.266 228.209C564.08 208.428 565.342 190.26 567 176.643L566.509 176C564.846 189.649 563.227 208.361 562.412 228.173C562.319 230.435 562.182 232.707 562 234.928Z" fill="#2E2DAD"/>
<path d="M493.483 343C493.637 342.933 509.383 335.897 525.725 319.12C535.3 309.293 543.255 298.009 549.295 285.688C556.852 270.294 561.458 251.377 563 233L562.07 233.437C558.6 274.687 539.831 302.872 524.908 318.225C508.725 334.853 493.154 341.817 493 341.884L493.483 343Z" fill="#2E2DAD"/>
<path d="M534.597 43H40.4025C37.9711 43 36 44.9448 36 47.3439V60H539V47.3439C539 46.1918 538.536 45.0869 537.711 44.2723C536.885 43.4577 535.765 43 534.597 43Z" fill="#222230"/>
<path d="M36 61V349.139C36 354.033 39.9744 358 44.8771 358H530.123C535.026 358 539 354.033 539 349.139V61H36Z" fill="white"/>
<circle opacity="0.8" cx="44" cy="52" r="2" fill="#FA5959"/>
<circle opacity="0.8" cx="50" cy="52" r="2" fill="#FED253"/>
<circle opacity="0.8" cx="55" cy="52" r="2" fill="#8CCF4D"/>
<rect opacity="0.05" x="83" y="109" width="404" height="178" fill="black"/>
<rect x="86" y="110" width="398" height="174" fill="#384BB3"/>
<path fill-rule="evenodd" clip-rule="evenodd" d="M155 194.5C155 172.685 172.685 155 194.5 155C204.976 155 215.023 159.162 222.431 166.569C229.838 173.977 234 184.024 234 194.5C234 216.315 216.315 234 194.5 234C172.685 234 155 216.315 155 194.5ZM201.584 214.153V195.449C205.547 192.45 207.151 187.254 205.569 182.543C203.987 177.832 199.572 174.658 194.603 174.658C189.633 174.658 185.219 177.832 183.637 182.543C182.054 187.254 183.658 192.45 187.621 195.449V214.153H201.584Z" fill="#6C63FF"/>
<path fill-rule="evenodd" clip-rule="evenodd" d="M155 194.5C155 172.685 172.685 155 194.5 155C204.976 155 215.023 159.162 222.431 166.569C229.838 173.977 234 184.024 234 194.5C234 216.315 216.315 234 194.5 234C172.685 234 155 216.315 155 194.5ZM201.584 214.153V195.449C205.547 192.45 207.151 187.254 205.569 182.543C203.987 177.832 199.572 174.658 194.603 174.658C189.633 174.658 185.219 177.832 183.637 182.543C182.054 187.254 183.658 192.45 187.621 195.449V214.153H201.584Z" fill="#2F2EB3"/>
<path fill-rule="evenodd" clip-rule="evenodd" d="M143 194C143 165.833 165.833 143 194 143C207.526 143 220.498 148.373 230.062 157.938C239.627 167.502 245 180.474 245 194C245 222.167 222.167 245 194 245C165.833 245 143 222.167 143 194ZM203.144 219.371V195.226C208.262 191.353 210.334 184.643 208.291 178.559C206.248 172.474 200.547 168.374 194.129 168.374C187.71 168.374 182.009 172.474 179.966 178.559C177.923 184.643 179.996 191.353 185.114 195.226V219.371H203.144Z" fill="#A9D8FF"/>
<rect x="266" y="188" width="165" height="17" fill="white"/>
<rect x="396" y="220" width="35" height="17" fill="#A9D8FF"/>
<path d="M282.733 195.741H279.645L282.392 192.994C282.494 192.888 282.494 192.72 282.392 192.615C282.342 192.564 282.274 192.536 282.203 192.536C282.132 192.536 282.063 192.564 282.013 192.615L279.267 195.367V192.267C279.267 192.12 279.147 192 279 192C278.854 192.003 278.736 192.121 278.733 192.267V195.367L275.992 192.599C275.942 192.548 275.874 192.519 275.803 192.519C275.732 192.519 275.663 192.548 275.613 192.599C275.511 192.704 275.511 192.872 275.613 192.978L278.36 195.725H275.267C275.121 195.728 275.003 195.846 275 195.992C275 196.14 275.119 196.259 275.267 196.259H278.36L275.613 199.011C275.511 199.117 275.511 199.285 275.613 199.391C275.72 199.491 275.885 199.491 275.992 199.391L278.733 196.639V199.733C278.733 199.88 278.853 200 279 200C279.147 200 279.267 199.88 279.267 199.733V196.639L282.013 199.391C282.12 199.491 282.285 199.491 282.392 199.391C282.494 199.285 282.494 199.117 282.392 199.011L279.645 196.259H282.733C282.881 196.259 283 196.14 283 195.992C282.992 195.851 282.875 195.741 282.733 195.741V195.741Z" fill="#3E3DC6"/>
<path d="M293.733 195.741H290.645L293.392 192.994C293.494 192.888 293.494 192.72 293.392 192.615C293.342 192.564 293.274 192.536 293.203 192.536C293.132 192.536 293.063 192.564 293.013 192.615L290.267 195.367V192.267C290.267 192.12 290.147 192 290 192C289.854 192.003 289.736 192.121 289.733 192.267V195.367L286.992 192.599C286.942 192.548 286.874 192.519 286.803 192.519C286.732 192.519 286.663 192.548 286.613 192.599C286.511 192.704 286.511 192.872 286.613 192.978L289.36 195.725H286.267C286.121 195.728 286.003 195.846 286 195.992C286 196.14 286.119 196.259 286.267 196.259H289.36L286.613 199.011C286.511 199.117 286.511 199.285 286.613 199.391C286.72 199.491 286.885 199.491 286.992 199.391L289.733 196.639V199.733C289.733 199.88 289.853 200 290 200C290.147 200 290.267 199.88 290.267 199.733V196.639L293.013 199.391C293.12 199.491 293.285 199.491 293.392 199.391C293.494 199.285 293.494 199.117 293.392 199.011L290.645 196.259H293.733C293.881 196.259 294 196.14 294 195.992C293.992 195.851 293.875 195.741 293.733 195.741Z" fill="#3E3DC6"/>
<path d="M303.733 195.741H300.645L303.392 192.994C303.494 192.888 303.494 192.72 303.392 192.615C303.342 192.564 303.274 192.536 303.203 192.536C303.132 192.536 303.063 192.564 303.013 192.615L300.267 195.367V192.267C300.267 192.12 300.147 192 300 192C299.854 192.003 299.736 192.121 299.733 192.267V195.367L296.992 192.599C296.942 192.548 296.874 192.519 296.803 192.519C296.732 192.519 296.663 192.548 296.613 192.599C296.511 192.704 296.511 192.872 296.613 192.978L299.36 195.725H296.267C296.121 195.728 296.003 195.846 296 195.992C296 196.14 296.119 196.259 296.267 196.259H299.36L296.613 199.011C296.511 199.117 296.511 199.285 296.613 199.391C296.72 199.491 296.885 199.491 296.992 199.391L299.733 196.639V199.733C299.733 199.88 299.853 200 300 200C300.147 200 300.267 199.88 300.267 199.733V196.639L303.013 199.391C303.12 199.491 303.285 199.491 303.392 199.391C303.494 199.285 303.494 199.117 303.392 199.011L300.645 196.259H303.733C303.881 196.259 304 196.14 304 195.992C303.992 195.851 303.875 195.741 303.733 195.741V195.741Z" fill="#3E3DC6"/>
<path d="M314.733 195.741H311.645L314.392 192.994C314.494 192.888 314.494 192.72 314.392 192.615C314.342 192.564 314.274 192.536 314.203 192.536C314.132 192.536 314.063 192.564 314.013 192.615L311.267 195.367V192.267C311.267 192.12 311.147 192 311 192C310.854 192.003 310.736 192.121 310.733 192.267V195.367L307.992 192.599C307.942 192.548 307.874 192.519 307.803 192.519C307.732 192.519 307.663 192.548 307.613 192.599C307.511 192.704 307.511 192.872 307.613 192.978L310.36 195.725H307.267C307.121 195.728 307.003 195.846 307 195.992C307 196.14 307.119 196.259 307.267 196.259H310.36L307.613 199.011C307.511 199.117 307.511 199.285 307.613 199.391C307.72 199.491 307.885 199.491 307.992 199.391L310.733 196.639V199.733C310.733 199.88 310.853 200 311 200C311.147 200 311.267 199.88 311.267 199.733V196.639L314.013 199.391C314.12 199.491 314.285 199.491 314.392 199.391C314.494 199.285 314.494 199.117 314.392 199.011L311.645 196.259H314.733C314.881 196.259 315 196.14 315 195.992C314.992 195.851 314.875 195.741 314.733 195.741V195.741Z" fill="#3E3DC6"/>
<path d="M325.733 195.741H322.645L325.392 192.994C325.494 192.888 325.494 192.72 325.392 192.615C325.342 192.564 325.274 192.536 325.203 192.536C325.132 192.536 325.063 192.564 325.013 192.615L322.267 195.367V192.267C322.267 192.12 322.147 192 322 192C321.854 192.003 321.736 192.121 321.733 192.267V195.367L318.992 192.599C318.942 192.548 318.874 192.519 318.803 192.519C318.732 192.519 318.663 192.548 318.613 192.599C318.511 192.704 318.511 192.872 318.613 192.978L321.36 195.725H318.267C318.121 195.728 318.003 195.846 318 195.992C318 196.14 318.119 196.259 318.267 196.259H321.36L318.613 199.011C318.511 199.117 318.511 199.285 318.613 199.391C318.72 199.491 318.885 199.491 318.992 199.391L321.733 196.639V199.733C321.733 199.88 321.853 200 322 200C322.147 200 322.267 199.88 322.267 199.733V196.639L325.013 199.391C325.12 199.491 325.285 199.491 325.392 199.391C325.494 199.285 325.494 199.117 325.392 199.011L322.645 196.259H325.733C325.881 196.259 326 196.14 326 195.992C325.992 195.851 325.875 195.741 325.733 195.741V195.741Z" fill="#3E3DC6"/>
<path d="M336.733 195.741H333.645L336.392 192.994C336.494 192.888 336.494 192.72 336.392 192.615C336.342 192.564 336.274 192.536 336.203 192.536C336.132 192.536 336.063 192.564 336.013 192.615L333.267 195.367V192.267C333.267 192.12 333.147 192 333 192C332.854 192.003 332.736 192.121 332.733 192.267V195.367L329.992 192.599C329.942 192.548 329.874 192.519 329.803 192.519C329.732 192.519 329.663 192.548 329.613 192.599C329.511 192.704 329.511 192.872 329.613 192.978L332.36 195.725H329.267C329.121 195.728 329.003 195.846 329 195.992C329 196.14 329.119 196.259 329.267 196.259H332.36L329.613 199.011C329.511 199.117 329.511 199.285 329.613 199.391C329.72 199.491 329.885 199.491 329.992 199.391L332.733 196.639V199.733C332.733 199.88 332.853 200 333 200C333.147 200 333.267 199.88 333.267 199.733V196.639L336.013 199.391C336.12 199.491 336.285 199.491 336.392 199.391C336.494 199.285 336.494 199.117 336.392 199.011L333.645 196.259H336.733C336.881 196.259 337 196.14 337 195.992C336.992 195.851 336.875 195.741 336.733 195.741V195.741Z" fill="#3E3DC6"/>
<path d="M347.733 195.741H344.645L347.392 192.994C347.494 192.888 347.494 192.72 347.392 192.615C347.342 192.564 347.274 192.536 347.203 192.536C347.132 192.536 347.063 192.564 347.013 192.615L344.267 195.367V192.267C344.267 192.12 344.147 192 344 192C343.854 192.003 343.736 192.121 343.733 192.267V195.367L340.992 192.599C340.942 192.548 340.874 192.519 340.803 192.519C340.732 192.519 340.663 192.548 340.613 192.599C340.511 192.704 340.511 192.872 340.613 192.978L343.36 195.725H340.267C340.121 195.728 340.003 195.846 340 195.992C340 196.14 340.119 196.259 340.267 196.259H343.36L340.613 199.011C340.511 199.117 340.511 199.285 340.613 199.391C340.72 199.491 340.885 199.491 340.992 199.391L343.733 196.639V199.733C343.733 199.88 343.853 200 344 200C344.147 200 344.267 199.88 344.267 199.733V196.639L347.013 199.391C347.12 199.491 347.285 199.491 347.392 199.391C347.494 199.285 347.494 199.117 347.392 199.011L344.645 196.259H347.733C347.881 196.259 348 196.14 348 195.992C347.992 195.851 347.875 195.741 347.733 195.741V195.741Z" fill="#3E3DC6"/>
<path d="M357.733 195.741H354.645L357.392 192.994C357.494 192.888 357.494 192.72 357.392 192.615C357.342 192.564 357.274 192.536 357.203 192.536C357.132 192.536 357.063 192.564 357.013 192.615L354.267 195.367V192.267C354.267 192.12 354.147 192 354 192C353.854 192.003 353.736 192.121 353.733 192.267V195.367L350.992 192.599C350.942 192.548 350.874 192.519 350.803 192.519C350.732 192.519 350.663 192.548 350.613 192.599C350.511 192.704 350.511 192.872 350.613 192.978L353.36 195.725H350.267C350.121 195.728 350.003 195.846 350 195.992C350 196.14 350.119 196.259 350.267 196.259H353.36L350.613 199.011C350.511 199.117 350.511 199.285 350.613 199.391C350.72 199.491 350.885 199.491 350.992 199.391L353.733 196.639V199.733C353.733 199.88 353.853 200 354 200C354.147 200 354.267 199.88 354.267 199.733V196.639L357.013 199.391C357.12 199.491 357.285 199.491 357.392 199.391C357.494 199.285 357.494 199.117 357.392 199.011L354.645 196.259H357.733C357.881 196.259 358 196.14 358 195.992C357.992 195.851 357.875 195.741 357.733 195.741V195.741Z" fill="#3E3DC6"/>
<path d="M368.733 195.741H365.645L368.392 192.994C368.494 192.888 368.494 192.72 368.392 192.615C368.342 192.564 368.274 192.536 368.203 192.536C368.132 192.536 368.063 192.564 368.013 192.615L365.267 195.367V192.267C365.267 192.12 365.147 192 365 192C364.854 192.003 364.736 192.121 364.733 192.267V195.367L361.992 192.599C361.942 192.548 361.874 192.519 361.803 192.519C361.732 192.519 361.663 192.548 361.613 192.599C361.511 192.704 361.511 192.872 361.613 192.978L364.36 195.725H361.267C361.121 195.728 361.003 195.846 361 195.992C361 196.14 361.119 196.259 361.267 196.259H364.36L361.613 199.011C361.511 199.117 361.511 199.285 361.613 199.391C361.72 199.491 361.885 199.491 361.992 199.391L364.733 196.639V199.733C364.733 199.88 364.853 200 365 200C365.147 200 365.267 199.88 365.267 199.733V196.639L368.013 199.391C368.12 199.491 368.285 199.491 368.392 199.391C368.494 199.285 368.494 199.117 368.392 199.011L365.645 196.259H368.733C368.881 196.259 369 196.14 369 195.992C368.992 195.851 368.875 195.741 368.733 195.741V195.741Z" fill="#3E3DC6"/>
<path d="M379.733 195.741H376.645L379.392 192.994C379.494 192.888 379.494 192.72 379.392 192.615C379.342 192.564 379.274 192.536 379.203 192.536C379.132 192.536 379.063 192.564 379.013 192.615L376.267 195.367V192.267C376.267 192.12 376.147 192 376 192C375.854 192.003 375.736 192.121 375.733 192.267V195.367L372.992 192.599C372.942 192.548 372.874 192.519 372.803 192.519C372.732 192.519 372.663 192.548 372.613 192.599C372.511 192.704 372.511 192.872 372.613 192.978L375.36 195.725H372.267C372.121 195.728 372.003 195.846 372 195.992C372 196.14 372.119 196.259 372.267 196.259H375.36L372.613 199.011C372.511 199.117 372.511 199.285 372.613 199.391C372.72 199.491 372.885 199.491 372.992 199.391L375.733 196.639V199.733C375.733 199.88 375.853 200 376 200C376.147 200 376.267 199.88 376.267 199.733V196.639L379.013 199.391C379.12 199.491 379.285 199.491 379.392 199.391C379.494 199.285 379.494 199.117 379.392 199.011L376.645 196.259H379.733C379.881 196.259 380 196.14 380 195.992C379.992 195.851 379.875 195.741 379.733 195.741V195.741Z" fill="#3E3DC6"/>
<path d="M390.733 195.741H387.645L390.392 192.994C390.494 192.888 390.494 192.72 390.392 192.615C390.342 192.564 390.274 192.536 390.203 192.536C390.132 192.536 390.063 192.564 390.013 192.615L387.267 195.367V192.267C387.267 192.12 387.147 192 387 192C386.854 192.003 386.736 192.121 386.733 192.267V195.367L383.992 192.599C383.942 192.548 383.874 192.519 383.803 192.519C383.732 192.519 383.663 192.548 383.613 192.599C383.511 192.704 383.511 192.872 383.613 192.978L386.36 195.725H383.267C383.121 195.728 383.003 195.846 383 195.992C383 196.14 383.119 196.259 383.267 196.259H386.36L383.613 199.011C383.511 199.117 383.511 199.285 383.613 199.391C383.72 199.491 383.885 199.491 383.992 199.391L386.733 196.639V199.733C386.733 199.88 386.853 200 387 200C387.147 200 387.267 199.88 387.267 199.733V196.639L390.013 199.391C390.12 199.491 390.285 199.491 390.392 199.391C390.494 199.285 390.494 199.117 390.392 199.011L387.645 196.259H390.733C390.881 196.259 391 196.14 391 195.992C390.992 195.851 390.875 195.741 390.733 195.741V195.741Z" fill="#3E3DC6"/>
<path opacity="0.1" fill-rule="evenodd" clip-rule="evenodd" d="M473.121 256.435C473.261 257.041 473.338 257.66 473.353 258.281C473.393 258.994 473.528 259.742 473.665 260.499C473.986 262.275 474.314 264.09 473.431 265.562C473.405 265.796 473.371 266.04 473.337 266.287C473.324 266.388 473.31 266.489 473.296 266.59L472.868 269.542C472.803 270.002 472.737 270.463 472.671 270.924C472.595 271.451 472.519 271.979 472.445 272.508L470.804 283.918C470.67 284.857 470.534 285.798 470.396 286.741C470.296 287.45 470.194 288.158 470.093 288.866C470.006 289.473 469.919 290.079 469.833 290.685C469.804 291.013 469.72 291.335 469.586 291.636C469.468 291.84 469.305 292.016 469.111 292.15C469.132 292.356 469.142 292.561 469.142 292.767C469.099 294.808 468.808 296.837 468.275 298.809C467.77 301.255 467.119 303.669 466.324 306.038C466.227 306.306 466.127 306.575 466.026 306.844C465.483 308.295 464.936 309.757 464.936 311.293C464.937 311.417 464.941 311.543 464.945 311.67C464.964 312.321 464.985 312.989 464.6 313.488C464.218 313.889 463.73 314.174 463.192 314.311C463.389 316.018 463.496 317.734 463.512 319.453C463.48 324.639 463.109 329.817 462.402 334.955C462.386 335.081 462.37 335.207 462.354 335.333C462.266 336.035 462.177 336.738 462.128 337.444C462.048 338.563 462.068 339.691 462.087 340.821C462.108 342.096 462.13 343.373 462.01 344.642C461.929 345.641 461.736 346.656 461.544 347.664C461.492 347.938 461.44 348.211 461.391 348.483C460.379 354.121 460.085 359.863 460.513 365.574C460.853 370.105 460.533 374.637 460.213 379.166C459.863 384.136 459.512 389.102 460.033 394.06C460.203 397.05 459.827 400.047 458.924 402.903C458.17 405.488 457.412 408.071 456.648 410.652C456.556 411.042 456.38 411.407 456.132 411.722C455.647 412.156 455 412.365 454.351 412.297V412.997H451.549C451.407 413.009 451.265 412.985 451.136 412.925C450.968 412.778 450.871 412.567 450.868 412.344C450.861 412.286 450.853 412.229 450.844 412.171C450.822 412.018 450.801 411.865 450.801 411.711C449.972 411.463 449.157 411.171 448.36 410.837C448.136 410.88 447.911 410.907 447.684 410.919C446.954 410.92 446.228 410.82 445.526 410.621C445.005 410.529 444.502 410.356 444.035 410.107C442.889 409.387 442.466 407.793 442.889 406.508C443.054 406.019 443.245 405.788 443.472 405.701C443.208 405.335 442.971 404.95 442.765 404.549C442.418 403.786 442.2 402.971 442.12 402.137C441.79 399.494 441.556 396.845 441.418 394.188C441.298 391.89 442.187 389.707 443.079 387.516C443.64 386.138 444.202 384.758 444.515 383.344C445.168 380.385 445.32 377.332 445.472 374.289C445.685 369.997 445.898 365.723 447.513 361.749C448.099 360.333 447.749 358.719 447.402 357.12C447.224 356.298 447.046 355.48 446.997 354.694C446.955 353.205 446.762 351.723 446.419 350.272C446.23 349.584 445.973 348.91 445.715 348.237C445.248 347.014 444.782 345.795 444.732 344.498C444.692 343.475 444.912 342.469 445.133 341.463C445.226 341.039 445.319 340.615 445.392 340.189C445.711 338.08 445.682 335.934 445.304 333.834C445.026 332.122 444.608 330.394 444.19 328.692C444.169 328.728 444.152 328.763 444.134 328.799C444.121 328.826 444.107 328.854 444.092 328.883C442.833 331.337 441.75 333.876 440.851 336.482C440.754 336.78 440.66 337.079 440.565 337.377C440.258 338.352 439.95 339.326 439.555 340.267C439.151 341.23 438.662 342.15 438.169 343.078L438.1 343.208C436.262 346.629 434.663 350.174 433.316 353.815C432.676 355.615 432.114 357.404 431.556 359.214C430.273 363.327 428.995 367.441 427.722 371.554C427.179 373.3 426.6 375.014 426.02 376.73C425.518 378.213 425.016 379.698 424.538 381.205L424.375 381.728C422.989 386.171 421.605 390.611 420.001 394.975C419.886 395.288 419.77 395.603 419.654 395.918C418.17 399.932 416.641 404.068 417.153 408.292C415.726 408.96 414.16 409.276 412.585 409.212H412.482C412.472 409.378 412.459 409.542 412.447 409.702C412.422 410.017 412.4 410.312 412.4 410.554C412.415 410.749 412.385 410.944 412.312 411.125C412.069 411.603 411.378 411.572 410.862 411.47C410.825 410.647 410.753 409.824 410.655 409.002C409.677 408.836 408.71 408.611 407.76 408.328C407.368 408.955 406.97 409.583 406.573 410.21C406.371 410.586 406.087 410.913 405.742 411.166C405.467 411.319 405.163 411.415 404.849 411.449C402.197 411.886 399.544 411.058 396.964 410.236C396.588 410.134 396.228 409.98 395.895 409.778C394.944 409.088 394.716 407.769 395.379 406.801C395.951 406.024 396.913 405.787 397.888 405.547C398.726 405.34 399.574 405.131 400.189 404.575C400.132 404.898 400.065 405.217 399.983 405.536C400.546 405.239 401.057 404.851 401.495 404.389C401.19 403.186 401.407 401.788 401.655 400.533C401.784 399.732 401.992 398.945 402.274 398.183C402.488 397.675 402.76 397.2 403.032 396.726C403.271 396.309 403.511 395.892 403.709 395.453C404.316 394.121 404.502 392.653 404.688 391.19C404.753 390.677 404.818 390.164 404.901 389.658C405.221 387.71 405.943 385.648 407.616 384.583C407.796 382.354 408.458 380.144 409.114 377.951C409.469 376.765 409.823 375.584 410.098 374.408C410.451 372.885 410.665 371.335 410.879 369.783C411.021 368.752 411.163 367.72 411.347 366.695C411.806 364.129 412.58 361.548 414.128 359.456C414.007 357.309 414.493 355.171 415.532 353.286C415.786 352.872 415.994 352.433 416.151 351.974C416.248 351.526 416.303 351.07 416.317 350.612C416.486 348.821 417.254 347.138 418.5 345.835C418.003 343.982 418.681 342.055 419.316 340.248L419.351 340.148C420.165 337.819 420.533 335.358 420.435 332.893C420.354 332.207 420.389 331.512 420.538 330.837C420.613 330.576 420.724 330.334 420.837 330.09C420.943 329.861 421.049 329.63 421.126 329.381C421.278 328.778 421.358 328.158 421.364 327.536C421.539 324.769 422.669 322.116 423.944 319.628C424.413 318.707 424.33 317.572 424.248 316.452C424.201 315.808 424.154 315.169 424.212 314.578C424.481 311.894 424.775 309.102 426.112 306.753C426.382 306.325 426.63 305.884 426.855 305.431C427.123 304.777 427.268 304.08 427.283 303.374C427.291 303.163 427.304 302.958 427.316 302.757C427.37 301.841 427.419 301.017 427.072 300.115C427.437 299.812 427.823 299.535 428.228 299.287C428.178 297.629 428.797 295.962 429.391 294.363C429.415 294.301 429.438 294.238 429.461 294.176C429.576 293.859 429.693 293.542 429.809 293.224C431.842 287.675 433.951 281.92 433.59 276.123C433.569 275.748 433.533 275.372 433.486 274.992C433.005 274.191 432.447 273.438 431.819 272.745C430.852 271.812 429.778 270.996 428.62 270.313C430.261 267.829 431.355 265.032 432.439 262.261C432.664 261.943 432.699 261.528 432.529 261.177C432.36 260.826 432.013 260.593 431.623 260.569V258.657C431.091 259.076 430.375 259.18 429.745 258.929C429.113 258.659 428.544 258.261 428.073 257.762C426.786 256.546 425.599 255.226 424.413 253.909L424.331 253.818L423.103 252.445C422.178 251.487 421.361 250.43 420.667 249.293C420.564 249.108 420.466 248.923 420.378 248.728C419.916 247.744 419.628 246.688 419.527 245.607C419.235 245.402 418.998 245.131 418.835 244.815L418.804 244.774L418.288 243.869L415.708 239.55C415.419 239.161 415.251 238.696 415.222 238.213C415.228 238.09 415.253 237.968 415.277 237.845C415.296 237.753 415.315 237.66 415.326 237.565C415.328 236.943 415.148 236.334 414.81 235.812C414.74 235.684 414.649 235.564 414.558 235.444C414.376 235.203 414.195 234.964 414.195 234.675C414.197 234.302 414.235 233.93 414.309 233.565C414.303 233.542 414.295 233.519 414.288 233.495C414.27 233.441 414.252 233.387 414.252 233.333L413.839 230.248C413.648 227.21 414.242 224.886 415.444 224.639C416.162 224.495 416.962 225.101 417.71 226.212L417.829 226.094L418.861 228.372C419.352 229.586 419.731 230.842 419.991 232.125C420.105 232.686 420.197 233.241 420.264 233.781C420.838 234.793 421.483 235.764 422.195 236.686C422.548 237.104 422.765 237.48 422.975 237.842C423.249 238.317 423.51 238.767 424.042 239.257C424.194 239.392 424.337 239.536 424.471 239.689C424.531 239.754 424.588 239.822 424.641 239.894C424.726 239.882 424.813 239.882 424.899 239.894C425.12 239.976 425.315 240.116 425.461 240.301C426.235 241.108 427.035 241.956 427.366 243.021C427.418 243.24 427.497 243.453 427.603 243.653C427.701 243.793 427.816 243.92 427.944 244.033L429.91 245.879C430.55 246.481 431.267 247.118 432.15 247.16C432.515 247.166 432.872 247.271 433.182 247.463C433.189 247.445 433.196 247.428 433.204 247.41C433.226 247.361 433.249 247.31 433.249 247.257C434.006 247.488 434.775 247.214 435.547 246.939C436.289 246.675 437.033 246.41 437.77 246.594C438.12 246.708 438.465 246.84 438.802 246.99C439.532 247.209 440.302 247.267 441.057 247.16C441.119 246.784 441.166 246.486 441.227 246.034C441.289 245.581 441.346 245.123 441.393 244.671C441.642 242.504 441.664 240.318 441.46 238.146C438.886 236.13 437.383 233.048 437.383 229.786C437.387 229.304 437.424 228.823 437.491 228.346L437.13 227.857C436.985 227.652 436.846 227.446 436.717 227.235C436.388 226.741 436.149 226.192 436.01 225.616C435.909 225.164 435.92 224.695 436.041 224.248C436.079 224.1 436.131 223.955 436.196 223.816C436.204 223.796 436.218 223.776 436.232 223.757C436.252 223.727 436.273 223.698 436.273 223.667C436.313 223.577 436.357 223.489 436.407 223.405C436.426 223.37 436.446 223.341 436.467 223.31C436.487 223.283 436.506 223.254 436.526 223.22C436.555 223.169 436.584 223.124 436.617 223.073C436.63 223.051 436.645 223.028 436.66 223.004C436.697 222.945 436.736 222.89 436.776 222.833C436.792 222.81 436.809 222.786 436.825 222.762L436.918 222.628C437.312 222.135 437.603 221.569 437.775 220.962C437.822 220.739 437.842 220.512 437.837 220.284C437.837 219.971 437.806 219.657 437.774 219.341C437.76 219.194 437.745 219.047 437.734 218.901V218.793V218.51V218.371V218.098V217.975C437.753 217.844 437.782 217.716 437.821 217.589C437.858 217.474 437.905 217.362 437.961 217.255L437.987 217.214C438.035 217.121 438.09 217.031 438.152 216.947C438.301 216.754 438.475 216.582 438.668 216.432C441.227 214.414 448.159 215.035 451.216 215.308C451.501 215.334 451.751 215.356 451.962 215.373L451.995 215.376C453.95 215.555 455.936 215.737 457.778 216.402C459.631 217.07 461.354 218.345 462.139 220.155C462.771 221.61 462.728 223.21 462.684 224.821C462.659 225.749 462.634 226.68 462.737 227.59C462.885 228.886 463.294 230.127 463.704 231.373C463.927 232.05 464.15 232.728 464.332 233.416C465.199 236.762 465.024 240.226 464.849 243.702C464.744 245.775 464.64 247.852 464.755 249.91C466.386 250.803 468.105 251.527 469.885 252.07C471.609 252.594 472.656 254.697 473.121 256.435ZM458.63 296.531C458.485 298.084 459.053 299.559 459.662 300.999C459.837 301.4 460.002 301.806 460.152 302.269C460.309 302.12 460.442 301.946 460.544 301.755C460.692 301.384 460.759 300.986 460.74 300.588C460.752 299.776 460.74 298.973 460.727 298.174C460.718 297.606 460.709 297.04 460.709 296.474C460.683 295.211 460.73 293.948 460.849 292.69C460.861 292.575 460.871 292.429 460.884 292.263C460.898 292.07 460.914 291.852 460.936 291.626C460.957 291.425 460.983 291.214 461.014 291.009C460.935 290.981 460.86 290.943 460.792 290.895C460.503 290.612 460.389 290.196 460.493 289.805C460.524 289.62 460.579 289.44 460.635 289.26C460.696 289.061 460.757 288.862 460.787 288.654C460.843 288.273 460.792 287.889 460.74 287.505C460.689 287.119 460.637 286.733 460.694 286.35C460.803 285.867 460.977 285.4 461.21 284.962C462.189 282.799 462.191 280.41 462.193 278.007C462.194 277.394 462.194 276.781 462.211 276.169C461.814 276.267 461.581 276.72 461.421 277.11C460.931 278.319 460.4 279.506 459.816 280.674C459.647 281.047 459.422 281.394 459.151 281.702C458.977 281.881 458.779 282.035 458.562 282.16C458.529 282.34 458.494 282.521 458.459 282.702C458.424 282.883 458.39 283.065 458.356 283.244C457.738 286.313 457.49 289.444 457.618 292.572C457.619 293.065 457.714 293.553 457.897 294.011C457.979 294.193 458.086 294.361 458.194 294.528C458.308 294.708 458.423 294.887 458.506 295.081C458.685 295.544 458.709 296.053 458.573 296.531H458.63Z" fill="#17171F"/>
<ellipse cx="417.32" cy="233.742" rx="2.89977" ry="8.21251" transform="rotate(-11.58 417.32 233.742)" fill="#FBBEBE"/>
<path d="M443.166 407.34C442.728 408.662 443.166 410.314 444.351 411.034C444.831 411.289 445.348 411.469 445.883 411.567C446.608 411.771 447.357 411.873 448.11 411.87C449.033 411.828 449.919 411.465 450.843 411.337C450.949 411.311 451.062 411.326 451.158 411.38C451.251 411.48 451.295 411.617 451.275 411.753C451.285 412.277 451.324 412.8 451.393 413.32C451.394 413.551 451.495 413.77 451.67 413.922C451.803 413.984 451.951 414.01 452.097 413.997H454.991C455.056 411.459 454.778 408.924 454.163 406.461C454.123 406.273 454.051 406.092 453.95 405.928C453.704 405.66 453.382 405.474 453.026 405.395C452.319 405.101 451.555 404.969 450.789 405.006C449.855 405.129 449.076 405.731 448.28 406.232C447.485 406.733 446.401 407.175 445.435 406.919C444.469 406.664 443.663 405.859 443.166 407.34Z" fill="#17171F"/>
<path d="M402.198 405.041C401.472 405.867 400.582 406.511 399.592 406.925L399.154 407.148C399.093 407.172 399.042 407.216 399.006 407.274C398.989 407.354 399.007 407.438 399.054 407.502C399.803 408.734 401.231 409.287 402.55 408.854C402.834 408.779 403.096 408.633 403.317 408.429C403.68 407.971 403.888 407.397 403.907 406.798C404.052 406.181 404.027 405.532 403.836 404.929C403.174 403.344 402.931 404.063 402.198 405.041Z" fill="#FBBEBE"/>
<path d="M412.879 410.998C412.895 411.19 412.866 411.383 412.794 411.561C412.558 412.028 411.9 412.003 411.388 411.901C411.31 410.18 411.104 408.468 410.77 406.779C409.796 406.733 409.093 407.666 408.571 408.503L407.226 410.659C407.031 411.03 406.756 411.352 406.422 411.602C406.153 411.75 405.858 411.845 405.554 411.881C402.983 412.312 400.387 411.495 397.906 410.684C397.541 410.585 397.191 410.435 396.867 410.238C395.947 409.555 395.725 408.261 396.365 407.306C397.404 405.886 399.739 406.292 401.035 405.115C400.899 405.943 400.677 406.754 400.372 407.534C402.104 407.271 403.269 405.668 404.665 404.598C405.016 404.297 405.438 404.095 405.89 404.01C406.228 403.981 406.569 404.017 406.894 404.116C408.504 404.525 410.01 405.274 411.313 406.312C411.84 406.733 412.663 407.326 412.894 407.976C413.14 408.752 412.879 410.172 412.879 410.998Z" fill="#17171F"/>
<circle cx="448.5" cy="230.5" r="10.5" fill="#FBBEBE"/>
<path d="M469 293.351C468.957 295.384 468.669 297.404 468.142 299.367C467.64 301.805 466.992 304.211 466.202 306.572C465.591 308.286 464.825 310.004 464.831 311.821C464.831 312.578 464.954 313.417 464.492 314.014C464.08 314.433 463.561 314.73 462.992 314.873C462.416 315.026 461.948 315.444 461.729 316C461.247 315.278 460.886 314.482 460.661 313.643C459.74 310.816 458.885 307.973 458.094 305.115C457.947 304.781 457.974 304.396 458.166 304.086C458.296 303.973 458.448 303.887 458.612 303.834C459.139 303.619 459.621 303.308 460.035 302.918C460.229 302.745 460.389 302.537 460.507 302.306C460.656 301.937 460.725 301.54 460.707 301.142C460.707 299.779 460.707 298.42 460.671 297.056C460.65 295.797 460.698 294.538 460.815 293.284C460.815 293.037 460.861 292.641 460.902 292.219C460.98 291.411 461.134 290.474 461.57 290.16C462.222 289.723 464.173 290.309 464.913 290.412C466.186 290.587 467.48 290.793 468.723 291.035C468.903 291.794 468.996 292.571 469 293.351V293.351Z" fill="#36364C"/>
<path d="M425.971 242.921C425.547 243.766 424.532 244.172 423.748 244.705L421.066 246.541C420.704 246.867 420.224 247.031 419.738 246.995C419.297 246.833 418.94 246.5 418.749 246.072C418.75 246.058 418.75 246.044 418.749 246.03L418.193 245.101L415.548 240.679C415.253 240.283 415.082 239.809 415.055 239.317C415.055 239.09 415.135 238.879 415.156 238.652C415.163 238.015 414.979 237.39 414.627 236.858C414.415 236.463 413.992 236.135 414.003 235.692C413.982 235.11 414.083 234.529 414.299 233.988C414.576 233.487 414.975 233.062 415.458 232.753C415.706 232.574 415.96 232.405 416.225 232.225C416.365 232.13 416.521 232.058 416.685 232.014C417.124 231.924 417.558 232.289 418.003 232.304C419.913 233.581 420.648 235.998 422.151 237.74C422.997 238.732 423.082 239.492 424.039 240.378C424.193 240.515 424.341 240.663 424.484 240.816C424.673 241.022 424.833 241.253 424.96 241.502C425.135 241.956 426.188 242.489 425.971 242.921Z" fill="#36364C"/>
<path d="M444.798 240.967C445.566 242.618 446.164 244.431 445.942 246.244C445.897 246.735 445.744 247.21 445.494 247.633C444.752 248.791 443.196 249 441.841 249.069C441.264 249.019 440.692 249.208 440.254 249.593C439.882 250.143 439.922 250.88 440.352 251.385C440.787 251.857 441.328 252.217 441.929 252.433C444.072 253.392 446.385 254.183 448.714 253.963C449.796 253.858 450.847 253.538 451.924 253.376C453.097 253.247 454.277 253.18 455.458 253.177C456.859 253.124 458.256 252.983 459.652 252.842L463.351 252.469C463.553 252.472 463.749 252.4 463.902 252.265C464.175 251.94 463.825 251.463 463.485 251.217C461.522 249.739 459.023 248.723 457.905 246.501C457.39 245.453 457.23 244.206 456.849 243.074C456.468 241.942 455.86 240.92 455.623 239.767C455.496 238.756 455.44 237.737 455.453 236.717C455.466 235.69 455.098 234.694 454.422 233.93C453.686 233.233 452.619 233.055 451.62 233.013C449.157 232.903 446.535 233.5 444.788 235.266C444.319 235.743 443.917 236.314 443.433 236.744C442.949 237.173 442.289 237.299 442.609 237.865C442.928 238.431 443.557 238.782 443.897 239.28C444.241 239.817 444.542 240.381 444.798 240.967V240.967Z" fill="#FBBEBE"/>
<path d="M464.776 256.135C464.129 260.07 463.077 263.927 461.637 267.647C460.913 269.327 460.296 271.05 459.79 272.808C459.395 274.392 459.472 276.088 459.108 277.677C458.657 279.655 458.205 281.637 457.841 283.63C457.23 286.673 456.985 289.778 457.113 292.878C457.114 293.367 457.208 293.85 457.39 294.304C457.559 294.672 457.831 294.988 457.99 295.367C458.23 296.038 458.178 296.779 457.846 297.41C457.583 297.995 457.226 298.534 456.789 299.005C452.009 300.425 446.894 299.96 441.913 300.262C437.322 300.538 432.68 301.478 428.156 300.696C427.643 298.652 428.499 296.511 429.233 294.518C431.362 288.729 433.716 282.7 433.337 276.635C433.297 275.927 433.216 275.223 433.096 274.524C432.352 270.227 433.162 265.777 434.46 261.613C435.265 259.017 435.23 256.253 435.045 253.55C434.954 252.672 434.941 251.788 435.009 250.908C435.083 250.009 435.418 249.152 435.973 248.44C435.973 248.404 436.02 248.368 436.045 248.333C436.071 248.297 436.271 248.302 436.43 248.333V248.333C436.512 248.367 436.604 248.367 436.686 248.333L436.743 248.297C436.787 248.265 436.847 248.265 436.892 248.297C437.01 248.368 437.076 248.614 437.333 248.66C437.712 248.717 438.094 248.753 438.477 248.767C438.937 248.781 439.395 248.846 439.841 248.961H439.903C440.57 249.073 441.254 249.015 441.893 248.792C442.318 248.687 442.728 248.529 443.114 248.322C443.227 248.2 443.935 248.087 444.078 248.001C444.545 247.719 444.442 246.401 444.54 245.86C444.594 245.316 444.723 244.783 444.925 244.276C445.399 243.515 446.222 243.038 447.12 243.003C448.003 242.982 448.886 243.061 449.752 243.238C451.665 243.509 453.624 243.463 455.502 243.903C456.446 244.122 457.477 244.454 458.344 244.025C458.58 244.081 458.616 244.286 458.616 244.536C458.593 244.774 458.545 245.009 458.472 245.236C458.144 246.646 459.257 247.944 460.283 248.966C460.716 249.448 461.228 249.854 461.796 250.167C462.309 250.402 462.822 250.499 463.335 250.755C463.75 250.975 464.103 251.297 464.361 251.69C464.656 252.14 464.856 252.646 464.946 253.177C465.056 254.165 464.998 255.165 464.776 256.135V256.135Z" fill="#36364C"/>
<path opacity="0.1" d="M464.782 256.807C464.138 260.714 463.092 264.544 461.659 268.237C460.938 269.905 460.325 271.616 459.822 273.361C459.429 274.933 459.505 276.617 459.143 278.195C458.694 280.158 458.245 282.127 457.883 284.105C457.775 284.166 457.663 284.222 457.551 284.273C456.916 284.574 456.243 284.789 455.551 284.912C454.307 285.061 453.047 285.02 451.815 284.79L444.534 283.821C441.625 283.431 438.528 282.959 436.369 281.001C435.17 279.925 434.384 278.505 433.522 277.135C433.483 276.433 433.402 275.733 433.282 275.04C432.542 270.773 433.349 266.355 434.64 262.22C435.441 259.643 435.405 256.899 435.221 254.215C435.13 253.344 435.118 252.466 435.186 251.592C435.259 250.7 435.593 249.849 436.145 249.142C436.294 249.099 436.446 249.065 436.599 249.041V249.041C436.702 249.02 436.806 249.006 436.91 249H437.058C437.23 249.001 437.401 249.021 437.569 249.061C437.916 249.171 438.257 249.301 438.589 249.451H438.65C439.088 249.595 439.547 249.66 440.008 249.644C440.681 249.644 441.375 249.538 442.049 249.492C442.881 249.363 443.732 249.515 444.467 249.923C444.942 250.302 445.392 250.711 445.815 251.146C446.325 251.545 446.9 251.855 447.514 252.064C451.906 253.731 456.779 253.629 461.097 251.78C461.512 251.546 461.983 251.426 462.46 251.435C462.812 251.504 463.146 251.645 463.44 251.851C463.746 252.029 464.047 252.201 464.358 252.358C464.652 252.805 464.85 253.308 464.94 253.835C465.057 254.827 465.003 255.832 464.782 256.807V256.807Z" fill="black"/>
<path d="M469.946 253.422C467.898 252.805 465.931 251.954 464.084 250.886C463.788 250.681 463.451 250.54 463.097 250.47C462.615 250.464 462.14 250.583 461.719 250.815C457.369 252.663 452.46 252.765 448.036 251.099C447.418 250.888 446.839 250.577 446.323 250.181C445.896 249.747 445.443 249.339 444.966 248.958C443.274 247.878 440.935 249.146 439.042 248.451C438.707 248.303 438.363 248.173 438.014 248.06C436.518 247.69 434.996 249.161 433.525 248.715C432.978 250.182 432.573 251.697 432.317 253.239C432.107 255.01 431.996 256.792 431.982 258.575C431.982 259.645 431.931 260.716 431.982 261.786C432.349 261.845 432.673 262.053 432.877 262.359C433.014 262.717 432.984 263.116 432.795 263.449C431.72 266.173 430.63 268.927 429 271.367C430.149 272.042 431.215 272.846 432.178 273.761C433.977 275.638 434.862 278.27 436.806 280.005C438.996 281.958 442.117 282.435 445.033 282.82L452.371 283.789C453.613 284.018 454.884 284.061 456.14 283.916C456.836 283.79 457.512 283.574 458.15 283.271C458.567 283.1 458.947 282.852 459.271 282.541C459.542 282.237 459.766 281.896 459.934 281.527C460.516 280.38 461.045 279.209 461.534 278.022C461.703 277.601 461.96 277.109 462.423 277.073C465.148 274.649 467.719 272.163 470.445 269.739C471.54 268.844 472.522 267.822 473.371 266.696C474.723 264.723 473.494 261.928 473.371 259.544C473.356 258.934 473.278 258.327 473.139 257.733C472.697 256.003 471.658 253.934 469.946 253.422Z" fill="#A9D8FF"/>
<path opacity="0.1" d="M425.972 243.104C425.563 243.91 424.583 244.298 423.828 244.808L421.24 246.562C420.89 246.873 420.428 247.029 419.958 246.995C419.533 246.84 419.189 246.522 419.004 246.113C419.004 245.997 419.004 245.871 419.004 245.75C418.984 245.342 419.04 244.934 419.167 244.545C419.421 243.975 419.814 243.476 420.311 243.094C421.272 242.195 422.415 241.508 423.664 241.077C423.859 241.002 424.071 240.981 424.277 241.017C424.356 241.037 424.432 241.069 424.502 241.112C424.684 241.309 424.839 241.53 424.961 241.768C425.165 242.181 426.181 242.69 425.972 243.104Z" fill="black"/>
<path d="M432.301 248.201C431.443 248.16 430.741 247.53 430.115 246.931L428.201 245.129C428.072 245.02 427.96 244.892 427.867 244.751C427.764 244.551 427.686 244.34 427.635 244.121C427.229 243.087 426.593 242.162 425.776 241.418C425.634 241.235 425.443 241.096 425.226 241.019C425.021 240.98 424.809 241.002 424.615 241.08C423.378 241.516 422.247 242.214 421.297 243.128C420.805 243.517 420.417 244.023 420.166 244.602C420.039 244.997 419.984 245.411 420.004 245.826C420.016 247.178 420.316 248.512 420.883 249.737C420.969 249.926 421.065 250.116 421.166 250.3C421.84 251.429 422.636 252.478 423.539 253.428L424.741 254.789C425.923 256.131 427.105 257.472 428.387 258.706C428.847 259.203 429.405 259.597 430.024 259.863C430.657 260.125 431.382 260.006 431.902 259.555C432.144 259.272 432.326 258.941 432.438 258.583C433.215 256.535 433.953 254.405 433.998 252.199C434.009 251.315 433.972 250.432 433.887 249.552C433.811 248.621 433.16 248.257 432.301 248.201Z" fill="#A9D8FF"/>
<path d="M464 320.63C463.97 325.788 463.601 330.939 462.895 336.049C462.791 336.875 462.678 337.7 462.621 338.526C462.451 340.921 462.729 343.326 462.502 345.705C462.383 346.992 462.115 348.269 461.888 349.525C460.878 355.132 460.583 360.844 461.01 366.524C461.722 375.975 459.538 385.43 460.529 394.855C460.649 396.688 460.547 398.528 460.224 400.337C460.04 401.459 459.772 402.566 459.424 403.65C458.67 406.217 457.912 408.781 457.151 411.341C457.062 411.731 456.885 412.095 456.635 412.408C456.102 412.866 455.396 413.073 454.698 412.977C451.718 412.885 448.913 411.608 446.207 410.362C445.896 410.24 445.607 410.067 445.355 409.849C444.792 409.27 444.838 408.357 444.59 407.593C444.342 406.829 443.671 406.111 443.289 405.326C442.974 404.584 442.784 403.796 442.726 402.993C442.381 400.368 442.147 397.732 442.023 395.086C441.827 391.363 444.306 387.938 445.122 384.318C446.672 377.2 445.36 369.57 448.113 362.817C448.98 360.683 447.72 358.099 447.596 355.802C447.552 354.32 447.358 352.846 447.018 351.402C446.501 349.474 445.411 347.659 445.334 345.659C445.277 344.213 445.747 342.803 445.99 341.377C446.312 339.279 446.282 337.143 445.902 335.054C445.628 333.331 445.21 331.608 444.792 329.927L444.699 330.116C443.44 332.558 442.358 335.086 441.46 337.68C441.047 338.936 440.686 340.218 440.169 341.439C439.746 342.464 439.224 343.402 438.713 344.367C436.879 347.766 435.282 351.287 433.935 354.904C433.295 356.678 432.732 358.494 432.174 360.273L428.347 372.58C427.314 375.816 426.182 378.944 425.17 382.174C423.739 386.789 422.309 391.363 420.646 395.876C419.096 400.157 417.252 404.593 417.805 409.116C416.381 409.78 414.817 410.095 413.244 410.034C410.582 409.8 407.971 409.171 405.497 408.167C404.51 407.803 403.488 407.393 402.821 406.588C401.675 405.198 401.959 403.162 402.305 401.393C402.435 400.596 402.643 399.813 402.925 399.055C403.317 398.111 403.958 397.276 404.361 396.342C405.172 394.553 405.223 392.527 405.543 390.584C405.864 388.64 406.576 386.589 408.25 385.533C408.534 382.118 409.949 378.749 410.729 375.41C411.318 372.882 411.514 370.283 411.979 367.719C412.444 365.155 413.193 362.591 414.752 360.514C414.629 358.373 415.116 356.24 416.157 354.361C416.409 353.948 416.615 353.51 416.772 353.053C416.868 352.608 416.924 352.155 416.937 351.699C417.108 349.917 417.875 348.244 419.117 346.946C418.6 345.074 419.318 343.12 419.964 341.305C420.777 338.989 421.145 336.541 421.048 334.09C420.968 333.406 421.002 332.713 421.147 332.039C421.291 331.526 421.575 331.091 421.741 330.598C421.888 329.995 421.966 329.378 421.973 328.757C422.174 325.983 423.306 323.368 424.555 320.891C425.299 319.445 424.669 317.481 424.824 315.871C425.093 313.194 425.387 310.425 426.725 308.092C426.973 307.651 427.241 307.231 427.463 306.774C427.732 306.123 427.878 305.427 427.892 304.723C427.938 303.549 428.104 302.575 427.68 301.482C430.443 299.2 434.214 298.56 437.809 298.406C441.403 298.252 445.04 298.575 448.557 297.816C449.59 297.585 450.623 297.267 451.713 297.113C454.187 296.755 456.697 297.313 459.14 297.867C458.969 299.406 459.538 300.882 460.173 302.313C462.653 308.108 463.954 314.333 464 320.63V320.63Z" fill="#222230"/>
<path opacity="0.1" d="M451 321L445.18 334C444.912 332.31 444.501 330.619 444.091 328.969L444 329.155V328.884L447.171 321.956L451 321Z" fill="black"/>
<path opacity="0.1" d="M469 293.535C468.665 293.804 468.266 293.964 467.848 293.996C467.209 294.021 466.57 293.927 465.96 293.719L461.414 292.498C461.272 292.46 461.133 292.407 461 292.34C461.076 291.488 461.227 290.5 461.657 290.169C462.298 289.707 464.217 290.326 464.944 290.435C466.197 290.619 467.47 290.837 468.692 291.092C468.881 291.891 468.985 292.71 469 293.535Z" fill="black"/>
<path d="M472.597 262.64C472.695 263.066 472.835 263.487 472.917 263.919C473.056 264.977 473.02 266.052 472.809 267.098L472.385 270.036L471.962 272.99L470.324 284.357L469.921 287.172L469.353 291.102C469.326 291.429 469.242 291.748 469.105 292.047C468.761 292.614 468.153 292.971 467.488 292.997C466.833 293.018 466.18 292.929 465.555 292.735L460.906 291.574C460.702 291.538 460.508 291.459 460.337 291.343C460.048 291.062 459.934 290.648 460.038 290.259C460.105 289.869 460.275 289.504 460.332 289.114C460.446 288.354 460.126 287.573 460.239 286.818C460.351 286.337 460.524 285.872 460.756 285.436C462.306 282.03 461.407 278.055 461.934 274.356C462.408 271.446 463.645 268.71 465.519 266.425C466.676 264.983 468.005 263.686 469.477 262.563C470.055 262.116 470.975 261.196 471.703 261.022C472.638 260.827 472.442 261.993 472.597 262.64Z" fill="#A9D8FF"/>
<path d="M437.778 218.632C437.44 219.721 437.968 220.918 437.727 222.028C437.466 223.252 436.329 224.102 436.006 225.331C435.494 227.202 437.061 228.908 438.208 230.464C442.459 236.239 441.901 244.234 440.446 251.28C439.276 256.933 437.658 262.482 435.607 267.871C434.967 269.546 434.26 271.247 433 272.501C435.356 271.817 437.86 271.127 440.221 271.791C443.212 272.631 445.793 275.571 448.825 274.902C450.648 274.492 451.928 272.854 453.567 271.947C456.64 270.272 460.343 271.324 463.769 271.864C464.507 272.04 465.28 272 465.997 271.75C466.545 271.451 467.01 271.018 467.349 270.49C468.878 268.504 469.794 266.105 469.981 263.594C470.145 261.065 469.23 258.586 467.467 256.786C466.739 256.092 465.869 255.532 465.311 254.713C464.768 253.756 464.477 252.674 464.466 251.571C464.061 245.867 465.433 240.045 464.02 234.528C463.508 232.563 462.673 230.681 462.448 228.67C462.166 226.165 462.837 223.485 461.854 221.193C461.08 219.373 459.375 218.082 457.536 217.419C455.698 216.755 453.731 216.568 451.78 216.382C448.973 216.143 438.951 214.925 437.778 218.632Z" fill="#222230"/>
<path d="M440.652 251.272C439.483 256.895 437.868 262.414 435.821 267.776C436.176 267.066 436.474 266.321 436.757 265.58C438.817 260.198 440.441 254.656 441.613 249.009C443.077 241.966 443.638 233.991 439.372 228.217C438.344 226.839 437.024 225.348 437.07 223.732C436.69 224.221 436.395 224.771 436.196 225.358C435.683 227.228 437.255 228.931 438.406 230.485C442.671 236.249 442.111 244.234 440.652 251.272Z" fill="black"/>
<path d="M437.985 221.531C438.397 221.015 438.705 220.422 438.889 219.786C438.969 219.017 438.948 218.24 438.828 217.476C438.432 217.777 438.134 218.19 437.974 218.662C437.671 219.579 438.021 220.573 437.985 221.531Z" fill="black"/>
<path d="M468.613 268.18C468.272 268.706 467.806 269.137 467.256 269.433C466.538 269.689 465.761 269.728 465.02 269.547C461.583 269.029 457.826 267.962 454.784 269.635C453.134 270.536 451.855 272.173 450.02 272.587C446.983 273.27 444.393 270.334 441.392 269.48C439.264 268.884 437.024 269.376 434.881 269.998C434.455 270.913 433.88 271.749 433.18 272.473C435.544 271.789 438.057 271.101 440.426 271.763C443.427 272.602 446.017 275.539 449.059 274.871C450.889 274.461 452.173 272.825 453.818 271.919C456.901 270.246 460.616 271.297 464.054 271.836C464.795 272.012 465.57 271.973 466.29 271.722C466.84 271.424 467.306 270.991 467.646 270.464C468.578 269.226 469.297 267.839 469.774 266.362C469.431 266.995 469.042 267.603 468.613 268.18V268.18Z" fill="black"/>
</svg>
